<?xml version="1.0" encoding="utf-8"?>
<!DOCTYPE svg PUBLIC "-//W3C//DTD SVG 1.1//EN" "http://www.w3.org/Graphics/SVG/1.1/DTD/svg11.dtd">
<svg width="598" height="597" viewBox="0 0 598 597" fill="none" xmlns="http://www.w3.org/2000/svg">
<path d="M350.185 209.74C408.517 243.418 457.874 283.075 490.61 320.73C530.055 366.1 545.49 409.264 532.06 432.525C518.064 456.766 470.23 465.536 407.254 452.53C359.642 442.697 303.058 419.244 247.686 387.275C190.914 354.497 140.901 316.972 108.466 279.83C67.4227 232.828 52.5826 187.401 66.3104 163.624C79.6306 140.551 123.248 131.745 181.553 142.846C230.819 152.227 291.284 175.733 350.185 209.74Z" stroke="#0584A6" stroke-width="24" stroke-miterlimit="10"/>
<path d="M247.641 209.765C305.956 176.059 364.966 153.115 413.941 143.566C472.948 132.062 518.052 140.255 531.493 163.509C545.502 187.742 529.201 233.562 486.475 281.619C454.169 317.951 405.587 355.251 350.23 387.25C293.475 420.055 235.982 444.633 187.602 454.175C126.382 466.25 79.6175 456.41 65.877 432.64C52.5457 409.573 66.7056 367.391 105.451 322.428C138.186 284.437 188.756 243.802 247.641 209.765Z" stroke="#0584A6" stroke-width="24" stroke-miterlimit="10"/>
<path d="M196.434 298.629C196.355 231.273 205.947 168.689 222.134 121.491C241.636 64.6241 271.26 29.6388 298.12 29.6079C326.11 29.5744 357.667 66.5788 377.962 127.597C393.308 173.73 401.36 234.448 401.435 298.387C401.512 363.942 394.094 426.026 378.198 472.706C358.085 531.777 326.206 567.377 298.75 567.409C272.107 567.441 242.634 534.106 223.029 478.082C206.465 430.748 196.515 366.642 196.434 298.629Z" stroke="#0584A6" stroke-width="24" stroke-miterlimit="10"/>
<path d="M299.403 347.795C298.384 347.795 297.522 347.442 296.817 346.737L260.138 311.351C259.746 311.038 259.207 310.529 258.521 309.823C257.835 309.118 256.748 307.835 255.259 305.972C253.77 304.112 252.437 302.201 251.262 300.242C250.087 298.283 249.038 295.912 248.117 293.13C247.197 290.348 246.736 287.644 246.736 285.019C246.736 276.398 249.224 269.658 254.201 264.798C259.178 259.939 266.055 257.509 274.832 257.509C277.262 257.509 279.741 257.93 282.268 258.773C284.795 259.616 287.147 260.752 289.322 262.183C291.496 263.613 293.368 264.955 294.935 266.209C296.502 267.463 297.992 268.795 299.402 270.206C300.813 268.795 302.301 267.463 303.869 266.209C305.437 264.955 307.307 263.613 309.483 262.183C311.658 260.752 314.008 259.616 316.537 258.773C319.064 257.931 321.543 257.509 323.972 257.509C332.75 257.509 339.627 259.939 344.604 264.798C349.582 269.657 352.07 276.398 352.07 285.019C352.07 293.679 347.583 302.496 338.609 311.47L301.99 346.738C301.284 347.443 300.422 347.795 299.403 347.795Z" fill="#0584A6"/>
</svg>

